<?xml version="1.0" encoding="utf-8"?>
<!-- Generator: Adobe Illustrator 19.0.0, SVG Export Plug-In . SVG Version: 6.00 Build 0)  -->
<svg version="1.1" id="Capa_1" xmlns="http://www.w3.org/2000/svg" xmlns:xlink="http://www.w3.org/1999/xlink" x="0px" y="0px"
	 viewBox="0 0 105.9 121.8" style="enable-background:new 0 0 105.9 121.8;" xml:space="preserve">
<style type="text/css">
	.st0{fill:#FFFFFF;}
</style>
<polygon id="XMLID_197_" class="st0" points="64,44.1 53.1,55.1 43.2,45.2 43.2,9.8 63.6,9.8 63.6,29.4 66.3,29.4 66.3,7.1 
	40.5,7.1 40.5,44.1 36.2,44.1 36.3,40.6 27.9,45.4 36.2,50.3 36.2,46.8 40.9,46.8 51.1,57 40.9,67.2 5.5,67.3 5.3,46.8 25.7,46.8 
	25.7,44.1 2.6,44.1 2.8,70 42.1,70 53,59 63.6,69.6 63.6,104.9 43.2,105 43.2,84.7 40.5,84.7 40.5,107.7 66.3,107.6 66.3,70 
	70.3,70 70.3,73.4 78.7,68.6 70.3,63.8 70.3,67.3 65.3,67.3 55,57 65.1,46.8 100.6,46.8 100.6,67.2 81,67.3 81,70 103.3,70 
	103.3,44.1 "/>
</svg>
