<?xml version="1.0" encoding="utf-8"?>
<!-- Generator: Adobe Illustrator 19.0.0, SVG Export Plug-In . SVG Version: 6.00 Build 0)  -->
<svg version="1.1" id="Capa_1" xmlns="http://www.w3.org/2000/svg" xmlns:xlink="http://www.w3.org/1999/xlink" x="0px" y="0px"
	 viewBox="0 0 105.9 121.8" style="enable-background:new 0 0 105.9 121.8;" xml:space="preserve">
<style type="text/css">
	.st0{fill:#66A8DD;}
</style>
<path id="XMLID_197_" class="st0" d="M104.5,36.4C103,29.2,98.9,23.1,92.8,19c-4.5-3-9.8-4.6-15.2-4.6c-9.2,0-17.8,4.6-22.9,12.3
	l-1.8,2.7l-1.8-2.7C46,19,37.5,14.4,28.3,14.4c-5.4,0-10.6,1.6-15.2,4.6C7,23.1,2.8,29.2,1.4,36.4c-1.5,7.2,0,14.5,4,20.6l47.4,50.3
	l47.4-50l0.3-0.3C104.5,50.9,105.9,43.6,104.5,36.4z M6.2,37.4c1.2-5.9,4.6-11,9.6-14.3c3.7-2.5,8-3.8,12.4-3.8
	c7.6,0,14.6,3.8,18.8,10.1l5.9,8.9l5.9-8.9c4.2-6.3,11.2-10.1,18.8-10.1c4.4,0,8.7,1.3,12.4,3.8c5,3.3,8.4,8.4,9.6,14.3
	c1.2,5.8,0,11.8-3.2,16.7l-1,1H73c-0.7,0-1.4,0.5-1.7,1.1L68,65.4l-4.1-26.2c-0.1-0.8-0.7-1.4-1.5-1.5c-0.8-0.1-1.5,0.3-1.8,1
	l-7.7,16.9h-42l-1.4-1.5C6.2,49.2,5,43.2,6.2,37.4z M14.1,59.2h39.8c0.7,0,1.3-0.4,1.6-1l5.8-12.6l4.2,27.1c0.1,0.8,0.8,1.4,1.6,1.5
	c0.1,0,0.1,0,0.2,0c0.7,0,1.4-0.5,1.7-1.1l5.3-14.3h17.9l-39.4,41.5L14.1,59.2z"/>
</svg>
