<?xml version="1.0" encoding="utf-8"?>
<!-- Generator: Adobe Illustrator 19.0.0, SVG Export Plug-In . SVG Version: 6.00 Build 0)  -->
<svg version="1.1" id="Capa_1" xmlns="http://www.w3.org/2000/svg" xmlns:xlink="http://www.w3.org/1999/xlink" x="0px" y="0px"
	 viewBox="0 0 188.3 46.2" style="enable-background:new 0 0 188.3 46.2;" xml:space="preserve">
<style type="text/css">
	.st0{fill:#66A8DD;}
	.st1{fill:#FFFFFF;}
	.st2{fill:#29275F;}
	.st3{fill:#61AAEA;}
	.st4{fill:#2B2A60;}
</style>
<g>
	<g>
		<rect x="0.4" y="0.6" class="st0" width="45.3" height="45.3"/>
		<g>
			<polygon class="st1" points="28.7,41.4 18.8,41.4 18.8,35.1 27.5,26.4 40.3,26.4 40.3,19.8 28.2,19.8 20,28 5.5,28 5.5,18.2 
				19.3,18.1 27,10.4 27,6.5 20.4,6.5 20.4,12 18.8,12 18.8,4.8 28.7,4.8 28.7,11.1 20,19.8 7.1,19.8 7.1,26.4 19.3,26.4 27.5,18.2 
				42,18.1 42,28.1 28.2,28 20.4,35.8 20.5,39.7 27,39.7 27,33.5 28.7,33.5 			"/>
		</g>
	</g>
	<g>
		<path class="st2" d="M51.8,1.1h7.2l1.8,3.7c3-2.2,5.5-4.2,10.6-4.2c4.4,0,7.4,1.7,8.8,4.4c3-2.2,6.9-4.4,12.2-4.4
			c7.5,0,10.1,5.1,10.1,12v22.6h-9V12.5c0-3.2-1.5-4.6-3.8-4.6c-3.4,0-5.9,0.6-8.3,2.7c0,0.3,0.1,1.7,0.1,2v22.6h-9V12.5
			c0-3.2-1.5-4.6-3.8-4.6c-3.5,0-5.4,0.9-8,2.9v24.4h-9V1.1z"/>
		<path class="st3" d="M119.7,0.9c9.9,0,14.4,1.1,14.4,12.4c0,6.1-3.3,8.6-9.5,8.6h-10.8c0,6.1,2.3,6.5,7.2,6.5
			c5.2,0,7.7,0.1,12.5-0.7v6.1c-4.8,1.8-12.1,1.8-17.4,1.8c-8.7,0-11.2-5-11.2-17.5C104.8,3.4,108.9,0.9,119.7,0.9z M122.3,15.4
			c1.9,0,2.8-0.9,2.8-2.6c0-4.3-0.6-5.1-4.9-5.1c-4.7,0-6.5,0.3-6.4,7.6H122.3z"/>
		<path class="st2" d="M136.4,1.1h7.2l1.8,3.7c3-2.2,5.5-4.2,10.6-4.2c4.4,0,7.4,1.7,8.8,4.4c3-2.2,6.9-4.4,12.2-4.4
			c7.5,0,10.1,5.1,10.1,12v22.6h-9V12.5c0-3.2-1.5-4.6-3.8-4.6c-3.4,0-5.9,0.6-8.3,2.7c0,0.3,0.1,1.7,0.1,2v22.6h-9V12.5
			c0-3.2-1.5-4.6-3.8-4.6c-3.5,0-5.4,0.9-8,2.9v24.4h-9V1.1z"/>
	</g>
	<g>
		<g>
			<path class="st4" d="M52.3,39.4h1.5l0.9,3.8l0.9-3.8h1.5l0.5,5.6h-1.1l-0.4-3.8l-0.9,3.8h-1.2l-0.9-3.8l-0.3,3.8h-1.1L52.3,39.4z
				"/>
			<path class="st4" d="M60.1,41c1.2,0,1.7,0.1,1.7,1.5c0,0.7-0.4,1-1.1,1h-1.3c0,0.7,0.3,0.8,0.9,0.8c0.6,0,0.9,0,1.5-0.1v0.7
				c-0.6,0.2-1.5,0.2-2.1,0.2c-1,0-1.3-0.6-1.3-2.1C58.3,41.3,58.8,41,60.1,41z M60.4,42.7c0.2,0,0.3-0.1,0.3-0.3
				c0-0.5-0.1-0.6-0.6-0.6c-0.6,0-0.8,0-0.8,0.9H60.4z"/>
			<path class="st4" d="M64,40.9c0.3,0,0.9,0.1,1.2,0.3V39h1.1v6h-0.9l-0.2-0.4c-0.3,0.2-0.8,0.5-1.2,0.5c-1,0-1.3-0.8-1.3-2.1
				C62.7,41.7,62.9,40.9,64,40.9z M64.3,44.2c0.4,0,0.7-0.1,1-0.2v-2c-0.3-0.1-0.6-0.2-1-0.2c-0.3,0-0.5,0.2-0.5,1.2
				C63.7,43.9,63.9,44.2,64.3,44.2z"/>
			<path class="st4" d="M67.2,39.7c0-0.1,0.1-0.2,0.2-0.2h0.8c0.1,0,0.2,0.1,0.2,0.2v0.7c0,0.1-0.1,0.2-0.2,0.2h-0.8
				c-0.1,0-0.2-0.1-0.2-0.2V39.7z M67.3,41h1.1v4.1h-1.1V41z"/>
			<path class="st4" d="M70.6,40.9c0.4,0,1.2,0,1.9,0.2v0.7c0,0-0.7,0-1.4,0c-0.5,0-0.7,0-0.7,1.2c0,1,0.2,1.2,0.7,1.2
				c0.7,0,1.5-0.1,1.5-0.1v0.7c-0.6,0.3-1.3,0.3-1.9,0.3c-0.8,0-1.3-0.4-1.3-2.1C69.3,41.3,69.9,40.9,70.6,40.9z"/>
			<path class="st4" d="M73.4,39.7c0-0.1,0.1-0.2,0.2-0.2h0.8c0.1,0,0.2,0.1,0.2,0.2v0.7c0,0.1-0.1,0.2-0.2,0.2h-0.8
				c-0.1,0-0.2-0.1-0.2-0.2V39.7z M73.4,41h1.1v4.1h-1.1V41z"/>
			<path class="st4" d="M75.5,41h0.9l0.2,0.4c0.3-0.3,0.7-0.5,1.3-0.5c1,0,1.2,0.7,1.2,1.4v2.7H78v-2.7c0-0.4-0.2-0.6-0.5-0.6
				c-0.4,0-0.7,0.1-1,0.4v2.9h-1.1V41z"/>
			<path class="st4" d="M79.9,43.6c0-0.6,0.3-1.1,1.2-1.1c0,0,1.2,0,1.2,0c0,0,0-0.3,0-0.3c0-0.4-0.2-0.5-0.5-0.5
				c-0.4,0-1.4,0.1-1.7,0.1v-0.7c0.5-0.2,1.1-0.3,1.9-0.3c0.9,0,1.5,0.3,1.5,1.3v2.8h-0.9l-0.2-0.4c0,0.1-0.6,0.5-1.2,0.5
				c-0.8,0-1.2-0.6-1.2-1.1V43.6z M81.4,44.2c0.4,0,0.9-0.3,0.9-0.3v-0.7l-1,0.1c-0.3,0-0.3,0.2-0.3,0.4v0.2
				C81,44.2,81.2,44.2,81.4,44.2z"/>
			<path class="st4" d="M88.3,41c1.2,0,1.7,0.1,1.7,1.5c0,0.7-0.4,1-1.1,1h-1.3c0,0.7,0.3,0.8,0.9,0.8c0.6,0,0.9,0,1.5-0.1v0.7
				c-0.6,0.2-1.5,0.2-2.1,0.2c-1,0-1.3-0.6-1.3-2.1C86.5,41.3,87,41,88.3,41z M88.6,42.7c0.2,0,0.3-0.1,0.3-0.3
				c0-0.5-0.1-0.6-0.6-0.6c-0.6,0-0.8,0-0.8,0.9H88.6z"/>
			<path class="st4" d="M90.9,41h0.9l0.2,0.4c0.4-0.3,0.7-0.5,1.3-0.5c0.5,0,0.9,0.2,1.1,0.5c0.4-0.3,0.8-0.5,1.5-0.5
				c0.9,0,1.2,0.6,1.2,1.4v2.7h-1.1v-2.7c0-0.4-0.2-0.6-0.5-0.6c-0.4,0-0.7,0.1-1,0.3c0,0,0,0.2,0,0.2v2.7h-1.1v-2.7
				c0-0.4-0.2-0.6-0.5-0.6c-0.4,0-0.6,0.1-1,0.3v2.9h-1.1V41z"/>
			<path class="st4" d="M97.9,41h0.9l0.2,0.4c0.3-0.2,0.8-0.5,1.2-0.5c1,0,1.3,0.8,1.3,2.1c0,1.2-0.2,2.1-1.3,2.1
				c-0.3,0-0.9-0.1-1.2-0.3v2.3h-1.1V41z M99.9,44.3c0.3,0,0.5-0.2,0.5-1.2c0-0.9-0.2-1.2-0.5-1.2c-0.4,0-0.7,0.1-1,0.2v2
				C99.3,44.2,99.6,44.3,99.9,44.3z"/>
			<path class="st4" d="M102.5,41h0.9l0.2,0.5c0.3-0.3,0.7-0.6,1.2-0.6c0.2,0,0.3,0,0.5,0v1c-0.1,0-0.4,0-0.6,0
				c-0.4,0-0.8,0.1-1,0.5v2.6h-1.1V41z"/>
			<path class="st4" d="M107.6,41c1.2,0,1.7,0.1,1.7,1.5c0,0.7-0.4,1-1.1,1h-1.3c0,0.7,0.3,0.8,0.9,0.8c0.6,0,0.9,0,1.5-0.1v0.7
				c-0.6,0.2-1.5,0.2-2.1,0.2c-1,0-1.3-0.6-1.3-2.1C105.8,41.3,106.3,41,107.6,41z M107.9,42.7c0.2,0,0.3-0.1,0.3-0.3
				c0-0.5-0.1-0.6-0.6-0.6c-0.6,0-0.8,0-0.8,0.9H107.9z"/>
			<path class="st4" d="M110.1,42c0-0.6,0.3-1.1,1.1-1.1c0.8,0,1.9,0,2.2,0.2v0.7h-1.9c-0.3,0-0.3,0.1-0.3,0.3v0.2
				c0,0.3,0.1,0.3,0.3,0.3h1c0.8,0,1.1,0.5,1.1,1.1V44c0,0.8-0.5,1.1-1,1.1c-0.8,0-2,0-2.3-0.2v-0.7h1.9c0.1,0,0.3,0,0.3-0.3v-0.2
				c0-0.2,0-0.3-0.3-0.3h-1c-0.7,0-1.1-0.3-1.1-1.1V42z"/>
			<path class="st4" d="M114.3,43.6c0-0.6,0.3-1.1,1.2-1.1c0,0,1.2,0,1.2,0c0,0,0-0.3,0-0.3c0-0.4-0.2-0.5-0.5-0.5
				c-0.4,0-1.4,0.1-1.7,0.1v-0.7c0.5-0.2,1.1-0.3,1.9-0.3c0.9,0,1.5,0.3,1.5,1.3v2.8h-0.9l-0.2-0.4c0,0.1-0.6,0.5-1.2,0.5
				c-0.8,0-1.2-0.6-1.2-1.1V43.6z M115.7,44.2c0.4,0,0.9-0.3,0.9-0.3v-0.7l-1,0.1c-0.3,0-0.3,0.2-0.3,0.4v0.2
				C115.3,44.2,115.5,44.2,115.7,44.2z"/>
			<path class="st4" d="M118.7,41h0.9l0.2,0.5c0.3-0.3,0.7-0.6,1.2-0.6c0.2,0,0.3,0,0.5,0v1c-0.1,0-0.4,0-0.6,0
				c-0.4,0-0.8,0.1-1,0.5v2.6h-1.1V41z"/>
			<path class="st4" d="M122.1,39.7c0-0.1,0.1-0.2,0.2-0.2h0.8c0.1,0,0.2,0.1,0.2,0.2v0.7c0,0.1-0.1,0.2-0.2,0.2h-0.8
				c-0.1,0-0.2-0.1-0.2-0.2V39.7z M122.2,41h1.1v4.1h-1.1V41z"/>
			<path class="st4" d="M124.1,43.6c0-0.6,0.3-1.1,1.2-1.1c0,0,1.2,0,1.2,0c0,0,0-0.3,0-0.3c0-0.4-0.2-0.5-0.5-0.5
				c-0.4,0-1.4,0.1-1.7,0.1v-0.7c0.5-0.2,1.1-0.3,1.9-0.3c0.9,0,1.5,0.3,1.5,1.3v2.8h-0.9l-0.2-0.4c0,0.1-0.6,0.5-1.2,0.5
				c-0.8,0-1.2-0.6-1.2-1.1V43.6z M125.6,44.2c0.4,0,0.9-0.3,0.9-0.3v-0.7l-1,0.1c-0.3,0-0.3,0.2-0.3,0.4v0.2
				C125.2,44.2,125.4,44.2,125.6,44.2z"/>
			<path class="st4" d="M128.5,39h1.1v4.4c0,0.6,0.1,0.7,0.4,0.8c0,0,0.5,0.2,0.5,0.2v0.7h-0.9c-0.7,0-1.1-0.4-1.1-1.5V39z"/>
			<path class="st4" d="M135.2,41c1.2,0,1.7,0.1,1.7,1.5c0,0.7-0.4,1-1.1,1h-1.3c0,0.7,0.3,0.8,0.9,0.8c0.6,0,0.9,0,1.5-0.1v0.7
				c-0.6,0.2-1.5,0.2-2.1,0.2c-1,0-1.3-0.6-1.3-2.1C133.4,41.3,133.9,41,135.2,41z M135.5,42.7c0.2,0,0.3-0.1,0.3-0.3
				c0-0.5-0.1-0.6-0.6-0.6c-0.6,0-0.8,0-0.8,0.9H135.5z"/>
			<path class="st4" d="M137.8,41h0.9l0.2,0.4c0.3-0.3,0.7-0.5,1.3-0.5c1,0,1.2,0.7,1.2,1.4v2.7h-1.1v-2.7c0-0.4-0.2-0.6-0.5-0.6
				c-0.4,0-0.7,0.1-1,0.4v2.9h-1.1V41z"/>
			<path class="st4" d="M144.6,41h0.9l0.2,0.4c0.4-0.3,0.7-0.5,1.3-0.5c0.5,0,0.9,0.2,1.1,0.5c0.4-0.3,0.8-0.5,1.5-0.5
				c0.9,0,1.2,0.6,1.2,1.4v2.7h-1.1v-2.7c0-0.4-0.2-0.6-0.5-0.6c-0.4,0-0.7,0.1-1,0.3c0,0,0,0.2,0,0.2v2.7h-1.1v-2.7
				c0-0.4-0.2-0.6-0.5-0.6c-0.4,0-0.6,0.1-1,0.3v2.9h-1.1V41z"/>
			<path class="st4" d="M153.4,40.9c1.4,0,1.9,0.5,1.9,2.1c0,1.5-0.4,2-1.9,2c-1.4,0-1.9-0.6-1.9-2C151.5,41.4,152,40.9,153.4,40.9z
				 M153.4,44.2c0.6,0,0.8-0.1,0.8-1.2c0-1.1-0.1-1.3-0.8-1.3c-0.6,0-0.8,0.1-0.8,1.3C152.6,44.1,152.8,44.2,153.4,44.2z"/>
			<path class="st4" d="M156.7,41l0.9,2.8l0.9-2.8h1.2l-1.5,4.1H157l-1.4-4.1H156.7z"/>
			<path class="st4" d="M160.4,39.7c0-0.1,0.1-0.2,0.2-0.2h0.8c0.1,0,0.2,0.1,0.2,0.2v0.7c0,0.1-0.1,0.2-0.2,0.2h-0.8
				c-0.1,0-0.2-0.1-0.2-0.2V39.7z M160.4,41h1.1v4.1h-1.1V41z"/>
			<path class="st4" d="M162.5,41h0.9l0.2,0.4c0.4-0.3,0.7-0.5,1.3-0.5c0.5,0,0.9,0.2,1.1,0.5c0.4-0.3,0.8-0.5,1.5-0.5
				c0.9,0,1.2,0.6,1.2,1.4v2.7h-1.1v-2.7c0-0.4-0.2-0.6-0.5-0.6c-0.4,0-0.7,0.1-1,0.3c0,0,0,0.2,0,0.2v2.7H165v-2.7
				c0-0.4-0.2-0.6-0.5-0.6c-0.4,0-0.6,0.1-1,0.3v2.9h-1.1V41z"/>
			<path class="st4" d="M169.5,39.7c0-0.1,0.1-0.2,0.2-0.2h0.8c0.1,0,0.2,0.1,0.2,0.2v0.7c0,0.1-0.1,0.2-0.2,0.2h-0.8
				c-0.1,0-0.2-0.1-0.2-0.2V39.7z M169.5,41h1.1v4.1h-1.1V41z"/>
			<path class="st4" d="M173.3,41c1.2,0,1.7,0.1,1.7,1.5c0,0.7-0.4,1-1.1,1h-1.3c0,0.7,0.3,0.8,0.9,0.8c0.6,0,0.9,0,1.5-0.1v0.7
				c-0.6,0.2-1.5,0.2-2.1,0.2c-1,0-1.3-0.6-1.3-2.1C171.5,41.3,172,41,173.3,41z M173.6,42.7c0.2,0,0.3-0.1,0.3-0.3
				c0-0.5-0.1-0.6-0.6-0.6c-0.6,0-0.8,0-0.8,0.9H173.6z"/>
			<path class="st4" d="M175.9,41h0.9l0.2,0.4c0.3-0.3,0.7-0.5,1.3-0.5c1,0,1.2,0.7,1.2,1.4v2.7h-1.1v-2.7c0-0.4-0.2-0.6-0.5-0.6
				c-0.4,0-0.7,0.1-1,0.4v2.9h-1.1V41z"/>
			<path class="st4" d="M180.2,41.2l0.7-0.2l0.2-1.1h0.9V41h0.9v0.8H182v1.6c0,0.6,0.1,0.7,0.3,0.8c0,0,0.5,0.2,0.5,0.2v0.7h-0.9
				c-0.6,0-1-0.4-1-1.5v-1.8h-0.7V41.2z"/>
			<path class="st4" d="M185.5,40.9c1.4,0,1.9,0.5,1.9,2.1c0,1.5-0.4,2-1.9,2c-1.4,0-1.9-0.6-1.9-2
				C183.6,41.4,184.1,40.9,185.5,40.9z M185.5,44.2c0.6,0,0.8-0.1,0.8-1.2c0-1.1-0.1-1.3-0.8-1.3c-0.6,0-0.8,0.1-0.8,1.3
				C184.7,44.1,184.9,44.2,185.5,44.2z"/>
		</g>
	</g>
</g>
</svg>
