<?xml version="1.0" encoding="utf-8"?>
<!-- Generator: Adobe Illustrator 19.0.0, SVG Export Plug-In . SVG Version: 6.00 Build 0)  -->
<svg version="1.1" id="Capa_1" xmlns="http://www.w3.org/2000/svg" xmlns:xlink="http://www.w3.org/1999/xlink" x="0px" y="0px"
	 viewBox="0 0 21.5 21.5" style="enable-background:new 0 0 21.5 21.5;" xml:space="preserve">
<style type="text/css">
	.st0{fill:#FFFFFF;}
	.st1{fill:#66A8DD;}
</style>
<g id="XMLID_211_">
	<path id="XMLID_215_" class="st0" d="M21.2,10.7c0,5.8-4.7,10.5-10.5,10.5c-5.8,0-10.5-4.7-10.5-10.5c0-5.8,4.7-10.5,10.5-10.5
		C16.5,0.3,21.2,4.9,21.2,10.7L21.2,10.7z M21.2,10.7"/>
	<path id="XMLID_212_" class="st1" d="M17.2,7.8c-0.4,0.2-0.9,0.3-1.4,0.4c0.5-0.3,0.9-0.8,1.1-1.4c-0.5,0.3-1,0.5-1.6,0.6
		c-0.5-0.5-1.1-0.8-1.8-0.8c-1.4,0-2.5,1.1-2.5,2.5c0,0.2,0,0.4,0.1,0.6C8.9,9.6,7,8.6,5.8,7.1C5.6,7.4,5.4,7.9,5.4,8.3
		c0,0.9,0.4,1.6,1.1,2.1c-0.4,0-0.8-0.1-1.1-0.3c0,0,0,0,0,0c0,1.2,0.9,2.2,2,2.5c-0.2,0.1-0.4,0.1-0.7,0.1c-0.2,0-0.3,0-0.5,0
		c0.3,1,1.2,1.7,2.3,1.7c-0.9,0.7-1.9,1.1-3.1,1.1c-0.2,0-0.4,0-0.6,0c1.1,0.7,2.4,1.1,3.8,1.1c4.6,0,7.1-3.8,7.1-7.1
		c0-0.1,0-0.2,0-0.3C16.4,8.7,16.8,8.3,17.2,7.8L17.2,7.8z M17.2,7.8"/>
</g>
</svg>
