<?xml version="1.0" encoding="utf-8"?>
<!-- Generator: Adobe Illustrator 19.0.0, SVG Export Plug-In . SVG Version: 6.00 Build 0)  -->
<svg version="1.1" id="Capa_1" xmlns="http://www.w3.org/2000/svg" xmlns:xlink="http://www.w3.org/1999/xlink" x="0px" y="0px"
	 viewBox="0 0 21.5 21.5" style="enable-background:new 0 0 21.5 21.5;" xml:space="preserve">
<style type="text/css">
	.st0{fill:#FFFFFF;}
	.st1{fill:#66A8DD;}
</style>
<g id="XMLID_211_">
	<path id="XMLID_215_" class="st0" d="M21.2,10.7c0,5.8-4.7,10.5-10.5,10.5c-5.8,0-10.5-4.7-10.5-10.5c0-5.8,4.7-10.5,10.5-10.5
		C16.5,0.3,21.2,4.9,21.2,10.7L21.2,10.7z M21.2,10.7"/>
	<path id="XMLID_212_" class="st1" d="M13.4,11.2h-1.9V18H8.7v-6.9H7.3V8.7h1.3V7.2c0-1.1,0.5-2.9,2.9-2.9l2.1,0v2.3h-1.5
		c-0.3,0-0.6,0.1-0.6,0.7v1.4h2.1L13.4,11.2z M13.4,11.2"/>
</g>
</svg>
