<?xml version="1.0" encoding="utf-8"?>
<!-- Generator: Adobe Illustrator 19.0.0, SVG Export Plug-In . SVG Version: 6.00 Build 0)  -->
<svg version="1.1" id="Capa_1" xmlns="http://www.w3.org/2000/svg" xmlns:xlink="http://www.w3.org/1999/xlink" x="0px" y="0px"
	 viewBox="0 0 105.9 121.8" style="enable-background:new 0 0 105.9 121.8;" xml:space="preserve">
<style type="text/css">
	.st0{fill:#66A8DD;}
</style>
<g id="XMLID_197_">
	<path id="XMLID_205_" class="st0" d="M45.8,17.6H6.1c-3,0-5.4,2.4-5.4,5.4v3.6c0,3,2.4,5.4,5.4,5.4h2.8v56.6
		c0,9.4,7.7,17.1,17.1,17.1c9.4,0,17.1-7.7,17.1-17.1V32h2.8c3,0,5.4-2.4,5.4-5.4V23C51.2,20,48.8,17.6,45.8,17.6z M39.4,88.6
		c0,7.4-6,13.5-13.5,13.5c-7.4,0-13.5-6-13.5-13.5v-4.8h12.3c0.7,0,1.2-0.6,1.2-1.2c0-0.7-0.6-1.2-1.2-1.2H12.5v-9.2h12.3
		c0.7,0,1.2-0.6,1.2-1.2c0-0.7-0.6-1.2-1.2-1.2H12.5v-9.2h12.3c0.7,0,1.2-0.6,1.2-1.2c0-0.7-0.6-1.2-1.2-1.2H12.5v-9.2h12.3
		c0.7,0,1.2-0.6,1.2-1.2c0-0.7-0.6-1.2-1.2-1.2H12.5V32h26.9V88.6z M47.6,26.6c0,1-0.8,1.8-1.8,1.8H6.1c-1,0-1.8-0.8-1.8-1.8V23
		c0-1,0.8-1.8,1.8-1.8h39.8c1,0,1.8,0.8,1.8,1.8V26.6z"/>
	<g id="XMLID_200_">
		<path id="XMLID_201_" class="st0" d="M99.8,17.6H60.1c-3,0-5.4,2.4-5.4,5.4v3.6c0,3,2.4,5.4,5.4,5.4h2.8v56.6
			c0,9.4,7.7,17.1,17.1,17.1c9.4,0,17.1-7.7,17.1-17.1V32h2.8c3,0,5.4-2.4,5.4-5.4V23C105.2,20,102.8,17.6,99.8,17.6z M66.5,64.1V32
			h26.9v32.1H66.5z M101.6,26.6c0,1-0.8,1.8-1.8,1.8H60.1c-1,0-1.8-0.8-1.8-1.8V23c0-1,0.8-1.8,1.8-1.8h39.8c1,0,1.8,0.8,1.8,1.8
			V26.6z"/>
	</g>
	<g id="XMLID_198_">
		<path id="XMLID_199_" class="st0" d="M64.9,82.2"/>
	</g>
</g>
</svg>
