<?xml version="1.0" encoding="utf-8"?>
<!-- Generator: Adobe Illustrator 19.0.0, SVG Export Plug-In . SVG Version: 6.00 Build 0)  -->
<svg version="1.1" id="Capa_1" xmlns="http://www.w3.org/2000/svg" xmlns:xlink="http://www.w3.org/1999/xlink" x="0px" y="0px"
	 viewBox="0 0 105.9 121.8" style="enable-background:new 0 0 105.9 121.8;" xml:space="preserve">
<style type="text/css">
	.st0{fill:#66A8DD;}
</style>
<g id="XMLID_197_">
	<path id="XMLID_198_" class="st0" d="M83,120.1H6.7c-1.3,0-2.4-1-2.4-2.3V94.5c0-1.3,1.1-2.3,2.4-2.3h19.9v-5.9H19
		c-1.3,0-2.4-1-2.4-2.3v-6.3c0-1.3,1.1-2.3,2.4-2.3h46c1.3,0,2.4,1,2.4,2.3v6.3c0,1.3-1.1,2.3-2.4,2.3h-7.8v5.9h17.3
		c8.3-5.6,12.6-13.7,12.6-23.9c0-8.5-2.3-14.9-6.9-19.2c-4.7-4.3-10.9-5.9-15.1-6.5l-1.6,4c-1.3,3.3-4.4,5.6-8.2,6.4l-1.7,4.4
		c0.8,1.1,1.1,2.5,0.6,3.8c-0.6,1.5-2.2,2.6-4,2.6c-0.6,0-1.2-0.1-1.7-0.3L39.3,60c-2.3-0.9-3.5-3.3-2.7-5.4
		c0.5-1.3,1.7-2.2,3.1-2.5l1.7-4.4c-2.4-3.1-3-6.9-1.7-10.3l9-22.4c1.3-3.2,4.1-5.5,7.8-6.3l1-2.5c1.1-2.9,4-4.9,7.2-4.9
		c0.9,0,1.8,0.2,2.7,0.5c1.9,0.7,3.4,2.1,4.3,3.9c0.8,1.8,0.9,3.9,0.2,5.7l-1,2.5c2.2,3.1,2.8,6.8,1.5,10l-1,2.4
		C77.7,28,85.5,30.8,92,36.9c8.1,7.6,12.2,18.1,12.2,31.4c0,19.2-10,30.7-18.9,37v12.5C85.4,119.1,84.3,120.1,83,120.1z M9.1,115.5
		h71.5v-11.4c0-0.8,0.4-1.5,1-1.9c11.8-8.1,17.8-19.5,17.8-33.9c0-11.9-3.6-21.3-10.7-28C82,34,73.7,31.6,67.8,30.7
		c-0.7-0.1-1.3-0.5-1.7-1.1c-0.4-0.6-0.4-1.4-0.2-2l2-5.1c0.8-2,0.2-4.4-1.6-6.3c-0.6-0.7-0.8-1.6-0.5-2.4l1.5-3.8
		c0.3-0.7,0.3-1.5-0.1-2.2c-0.3-0.7-0.9-1.2-1.6-1.5C64.2,5.8,62.5,6.5,62,8l-1.5,3.8c-0.3,0.8-1.1,1.4-2,1.5
		c-2.6,0.3-4.6,1.6-5.4,3.6l-9,22.4c-0.8,2.1-0.2,4.6,1.7,6.5c0.6,0.7,0.8,1.6,0.5,2.4l-2.8,7.2c-0.2,0.4-0.4,0.7-0.7,1l5.4,2
		c-0.1-0.4,0-0.8,0.1-1.2l2.8-7.2c0.3-0.8,1.1-1.4,2-1.5c2.7-0.2,4.8-1.6,5.7-3.6l2.3-5.7c0.4-1,1.4-1.6,2.4-1.5
		c4.6,0.4,13.3,1.9,19.8,7.9c5.6,5.2,8.4,12.8,8.4,22.6c0,12.2-5.1,21.7-15.3,28.2c-0.4,0.3-0.8,0.4-1.3,0.4H54.9
		c-1.3,0-2.4-1-2.4-2.3V83.9c0-1.3,1.1-2.3,2.4-2.3h7.8v-1.6H21.4v1.6H29c1.3,0,2.4,1,2.4,2.3v10.6c0,1.3-1.1,2.3-2.4,2.3H9.1V115.5
		z"/>
</g>
</svg>
