<?xml version="1.0" encoding="utf-8"?>
<!-- Generator: Adobe Illustrator 19.0.0, SVG Export Plug-In . SVG Version: 6.00 Build 0)  -->
<svg version="1.1" id="Capa_1" xmlns="http://www.w3.org/2000/svg" xmlns:xlink="http://www.w3.org/1999/xlink" x="0px" y="0px"
	 viewBox="0 0 105.9 121.8" style="enable-background:new 0 0 105.9 121.8;" xml:space="preserve">
<style type="text/css">
	.st0{fill:#FFFFFF;}
</style>
<g id="XMLID_197_">
	<g id="XMLID_198_">
		<path id="XMLID_222_" class="st0" d="M75.9,20.1h-7.3h-7.1c-1.4-4.2-5-7.1-9.2-7.1c-4.2,0-7.8,3-9.2,7.1h-7.1h-7.3
			c-4.5,0-8.2,3.7-8.2,8.2v60.5c0,4.5,3.7,8.2,8.2,8.2h47.1c4.5,0,8.2-3.7,8.2-8.2V28.3C84.1,23.8,80.4,20.1,75.9,20.1z M80,88.8
			c0,2.3-1.8,4.1-4.1,4.1H28.8c-2.3,0-4.1-1.8-4.1-4.1V28.3c0-2.3,1.8-4.1,4.1-4.1h7.3v3.7h32.5v-3.7h7.3c2.3,0,4.1,1.8,4.1,4.1
			V88.8z"/>
		<g id="XMLID_199_">
			<g id="XMLID_220_">
				<ellipse id="XMLID_221_" class="st0" cx="34.9" cy="41.4" rx="1.8" ry="1.9"/>
			</g>
			<g id="XMLID_218_">
				<ellipse id="XMLID_219_" class="st0" cx="34.9" cy="49.2" rx="1.8" ry="1.9"/>
			</g>
			<g id="XMLID_216_">
				<ellipse id="XMLID_217_" class="st0" cx="34.9" cy="56.9" rx="1.8" ry="1.9"/>
			</g>
			<g id="XMLID_214_">
				<ellipse id="XMLID_215_" class="st0" cx="34.9" cy="64.7" rx="1.8" ry="1.9"/>
			</g>
			<g id="XMLID_212_">
				<ellipse id="XMLID_213_" class="st0" cx="34.9" cy="72.4" rx="1.8" ry="1.9"/>
			</g>
			<g id="XMLID_210_">
				<path id="XMLID_211_" class="st0" d="M71.6,42.3H39.5c-0.5,0-0.8-0.4-0.8-0.8c0-0.5,0.4-0.8,0.8-0.8h32.1c0.5,0,0.8,0.4,0.8,0.8
					C72.4,41.9,72,42.3,71.6,42.3z"/>
			</g>
			<g id="XMLID_208_">
				<path id="XMLID_209_" class="st0" d="M71.6,49.9H39.5c-0.5,0-0.8-0.4-0.8-0.8c0-0.5,0.4-0.8,0.8-0.8h32.1c0.5,0,0.8,0.4,0.8,0.8
					C72.4,49.6,72,49.9,71.6,49.9z"/>
			</g>
			<g id="XMLID_206_">
				<path id="XMLID_207_" class="st0" d="M71.6,57.6H39.5c-0.5,0-0.8-0.4-0.8-0.8c0-0.5,0.4-0.8,0.8-0.8h32.1c0.5,0,0.8,0.4,0.8,0.8
					C72.4,57.2,72,57.6,71.6,57.6z"/>
			</g>
			<g id="XMLID_204_">
				<path id="XMLID_205_" class="st0" d="M71.6,65.3H39.5c-0.5,0-0.8-0.4-0.8-0.8c0-0.5,0.4-0.8,0.8-0.8h32.1c0.5,0,0.8,0.4,0.8,0.8
					C72.4,64.9,72,65.3,71.6,65.3z"/>
			</g>
			<g id="XMLID_202_">
				<path id="XMLID_203_" class="st0" d="M71.6,72.9H39.5c-0.5,0-0.8-0.4-0.8-0.8c0-0.5,0.4-0.8,0.8-0.8h32.1c0.5,0,0.8,0.4,0.8,0.8
					C72.4,72.5,72,72.9,71.6,72.9z"/>
			</g>
			<g id="XMLID_200_">
				<path id="XMLID_201_" class="st0" d="M71.6,80.6H59.7c-0.5,0-0.8-0.4-0.8-0.8c0-0.5,0.4-0.8,0.8-0.8h11.9c0.5,0,0.8,0.4,0.8,0.8
					C72.4,80.2,72,80.6,71.6,80.6z"/>
			</g>
		</g>
	</g>
</g>
</svg>
