<?xml version="1.0" encoding="utf-8"?>
<!-- Generator: Adobe Illustrator 19.0.0, SVG Export Plug-In . SVG Version: 6.00 Build 0)  -->
<svg version="1.1" id="Capa_1" xmlns="http://www.w3.org/2000/svg" xmlns:xlink="http://www.w3.org/1999/xlink" x="0px" y="0px"
	 viewBox="0 0 21.5 21.5" style="enable-background:new 0 0 21.5 21.5;" xml:space="preserve">
<style type="text/css">
	.st0{fill:#FFFFFF;}
	.st1{fill:#66A8DD;}
</style>
<g id="XMLID_210_">
	<path id="XMLID_216_" class="st0" d="M21.3,10.8c0,5.8-4.7,10.5-10.5,10.5C5,21.3,0.3,16.6,0.3,10.8C0.3,5,5,0.3,10.8,0.3
		C16.6,0.3,21.3,5,21.3,10.8L21.3,10.8z M21.3,10.8"/>
	<path id="XMLID_211_" class="st1" d="M17,11.6v4.3h-2.5v-4c0-1-0.4-1.7-1.3-1.7c-0.7,0-1.1,0.5-1.3,0.9c-0.1,0.2-0.1,0.4-0.1,0.6
		v4.2H9.4c0,0,0-6.8,0-7.5h2.5v1.1c0,0,0,0,0,0l0,0v0c0.3-0.5,0.9-1.2,2.3-1.2C15.8,8.2,17,9.3,17,11.6L17,11.6z M6.8,4.7
		C5.9,4.7,5.3,5.3,5.3,6c0,0.7,0.5,1.3,1.4,1.3h0c0.9,0,1.4-0.6,1.4-1.3C8.1,5.3,7.6,4.7,6.8,4.7L6.8,4.7z M5.5,15.9H8V8.4H5.5V15.9
		z M5.5,15.9"/>
</g>
</svg>
